<svg xmlns="http://www.w3.org/2000/svg" viewBox="0 0 512 512">
  <rect x="18" y="17" width="475" height="477" rx="55" fill="#00b141"/>
  <g transform="translate(0.000000,512.000000) scale(0.100000,-0.100000)" fill="#ffffff">
    <path d="M1314 4256 c-17 -8 -34 -21 -38 -31 -3 -9 -6 -141 -6 -294 0 -296 -3
-274 43 -323 1 -1 298 -5 659 -8 l658 -5 -706 -1299 c-452 -832 -706 -1309
-706 -1328 -1 -16 7 -37 16 -46 15 -16 85 -17 869 -20 508 -2 905 1 982 7 308
24 537 131 695 323 52 64 140 231 159 301 l9 37 -820 0 c-777 0 -820 1 -813
18 3 9 321 595 706 1301 449 823 701 1294 701 1313 1 16 -7 37 -16 46 -15 16
-104 17 -1189 19 -968 2 -1177 0 -1203 -11z"/>
  </g>
</svg>
